<?xml version="1.0" standalone="no"?>
<!DOCTYPE svg PUBLIC "-//W3C//DTD SVG 20010904//EN"
 "http://www.w3.org/TR/2001/REC-SVG-20010904/DTD/svg10.dtd">
<svg version="1.0" xmlns="http://www.w3.org/2000/svg"
 width="1000.000000pt" height="1000.000000pt" viewBox="0 0 1000.000000 1000.000000"
 preserveAspectRatio="xMidYMid meet">
<metadata>
Created by potrace 1.14, written by Peter Selinger 2001-2017
</metadata>
<g transform="translate(0.000000,1000.000000) scale(0.100000,-0.100000)"
fill="#000000" stroke="none">
<path d="M4545 9689 c19 -79 35 -241 35 -349 0 -227 -38 -475 -137 -895 -165
-702 -197 -914 -197 -1310 0 -219 3 -284 22 -410 35 -235 90 -444 170 -653
l35 -93 104 213 105 213 -21 95 c-36 161 -44 262 -38 470 7 230 29 375 113
740 135 587 149 675 149 935 0 163 -3 205 -23 293 -13 57 -26 110 -29 118 -10
28 14 13 112 -68 245 -201 454 -425 600 -643 406 -607 365 -1245 -118 -1837
-26 -32 -61 -103 -107 -215 -37 -93 -80 -194 -94 -227 -14 -32 -26 -63 -26
-68 0 -25 383 323 506 460 290 321 408 585 407 912 0 222 -53 419 -183 685
-70 144 -80 160 -208 354 -134 202 -350 468 -577 711 -117 125 -466 471 -548
542 -50 44 -57 47 -52 27z"/>
<path d="M5160 8261 c0 -6 4 -13 10 -16 6 -3 7 1 4 9 -7 18 -14 21 -14 7z"/>
<path d="M5184 8215 c4 -11 14 -46 23 -77 9 -33 20 -55 26 -51 6 3 7 1 3 -5
-3 -6 -2 -30 4 -54 6 -24 13 -77 15 -118 3 -41 9 -104 14 -140 4 -36 5 -75 0
-87 -5 -13 -11 -64 -14 -115 -3 -50 -16 -136 -30 -190 -14 -54 -25 -108 -25
-118 0 -11 -4 -20 -10 -20 -5 0 -7 -7 -4 -15 4 -8 2 -15 -4 -15 -6 0 -8 -9 -5
-20 3 -11 0 -20 -6 -20 -6 0 -11 -7 -11 -15 0 -13 -20 -65 -41 -107 -11 -23
-11 -31 0 -24 11 7 8 -71 -3 -81 -5 -5 -6 1 -2 13 4 12 3 29 0 39 -11 29 -36
-42 -28 -82 4 -20 2 -33 -4 -33 -6 0 -8 9 -5 20 10 39 -8 19 -37 -41 -16 -34
-27 -66 -23 -72 3 -5 2 -8 -3 -5 -5 3 -40 -60 -79 -141 -38 -80 -73 -148 -76
-151 -12 -10 -69 -131 -69 -146 0 -8 -5 -12 -11 -8 -6 3 -4 -8 5 -24 9 -17 16
-44 15 -59 -1 -22 -3 -19 -11 15 -11 50 -32 58 -23 8 4 -21 2 -36 -5 -41 -7
-5 -9 2 -5 22 l7 28 -21 -25 c-25 -31 -27 -50 -3 -50 14 0 15 -2 2 -10 -9 -6
-17 -5 -21 2 -4 6 -28 -32 -54 -86 -25 -53 -43 -102 -39 -108 4 -6 3 -8 -3 -5
-6 4 -16 -8 -23 -26 -6 -17 -16 -40 -21 -49 -16 -30 -93 -270 -103 -323 -5
-20 -4 -25 3 -16 7 10 9 7 8 -12 -1 -14 -5 -23 -8 -21 -4 2 -9 -19 -13 -46 -9
-65 4 -236 16 -218 5 8 6 3 2 -15 -3 -15 -2 -33 4 -40 5 -6 15 -30 21 -52 19
-71 106 -198 188 -275 100 -94 193 -161 213 -155 8 2 22 0 30 -6 12 -8 9 -9
-10 -4 l-25 6 24 -18 c13 -10 42 -29 64 -42 l39 -23 -27 41 c-15 23 -32 41
-36 41 -5 0 -8 3 -7 8 2 4 -14 41 -34 82 -37 75 -78 215 -78 265 0 14 -5 36
-11 47 -8 15 -8 19 0 14 7 -4 11 1 11 13 0 11 -4 23 -10 26 -5 3 -10 12 -10
18 0 7 4 6 10 -3 12 -19 12 42 0 80 l-8 25 -2 -25 -2 -25 -8 26 c-4 15 -5 40
-2 55 l6 29 7 -25 c5 -16 7 -5 4 30 -4 53 -4 54 6 15 5 -22 8 -49 5 -60 -3
-11 -1 -26 3 -33 5 -9 11 5 15 38 4 29 14 79 22 111 8 33 13 69 10 82 -3 12
-3 15 1 8 8 -19 55 127 49 152 -2 9 0 15 4 12 14 -9 32 33 25 58 -5 17 -4 19
4 7 9 -13 11 -12 12 5 1 11 1 28 1 38 -1 10 2 16 6 13 10 -6 62 122 62 153 0
12 4 20 9 17 14 -9 84 163 85 207 0 21 2 34 4 28 2 -6 8 -11 14 -11 6 0 7 7 3
18 -10 23 -7 64 5 76 12 12 13 4 1 -27 -6 -14 -7 -28 -4 -31 8 -8 33 50 33 76
0 12 4 17 12 12 8 -5 9 0 6 14 -4 12 -3 20 2 17 4 -3 11 2 14 11 9 24 7 31 -4
14 -6 -9 -10 -10 -10 -3 0 6 5 15 10 18 21 13 73 161 63 178 -4 6 -1 7 7 2 9
-6 10 -2 5 15 -4 14 -3 20 3 16 14 -9 22 30 8 45 -8 9 -8 10 1 5 12 -6 56 110
52 136 -1 7 4 27 11 43 7 17 15 60 17 97 3 37 10 65 14 62 5 -3 9 13 9 34 0
22 3 54 7 72 4 24 3 31 -5 26 -7 -4 -13 -31 -14 -59 l-2 -52 -3 47 c-3 33 1
55 14 74 14 22 17 48 17 143 -1 138 -10 272 -20 304 -9 27 -11 33 -12 71 -2
29 -3 29 -18 10 -15 -19 -16 -19 -8 1 16 41 -2 138 -29 156 -5 4 -9 18 -9 33
0 15 -5 23 -11 19 -5 -3 -7 -1 -4 5 4 5 3 21 -2 34 l-9 23 -10 -25 c-7 -16
-11 -19 -11 -8 -1 9 -4 18 -8 21 -5 2 -2 2 5 1 6 -2 12 1 12 6 0 6 -5 10 -11
10 -5 0 -7 5 -4 10 4 6 10 8 15 5 5 -3 -11 35 -36 84 -24 50 -44 95 -44 101 0
5 -7 10 -16 10 -10 0 -14 6 -11 14 3 8 -2 20 -10 28 -15 11 -16 11 -9 -7z m50
-81 c3 -8 2 -12 -4 -9 -6 3 -10 10 -10 16 0 14 7 11 14 -7z m51 -124 c3 -5 1
-10 -4 -10 -6 0 -11 5 -11 10 0 6 2 10 4 10 3 0 8 -4 11 -10z m-5 -98 c0 -15
-2 -15 -10 -2 -13 20 -13 33 0 25 6 -3 10 -14 10 -23z m45 -49 c-8 -34 -25
-54 -25 -31 0 9 5 20 11 23 6 4 8 13 5 21 -3 8 -1 14 5 14 7 0 9 -10 4 -27z
m52 -225 c-3 -8 -6 -5 -6 6 -1 11 2 17 5 13 3 -3 4 -12 1 -19z m28 13 c3 -5 1
-12 -5 -16 -5 -3 -10 1 -10 9 0 18 6 21 15 7z m12 -83 c-3 -8 -6 -5 -6 6 -1
11 2 17 5 13 3 -3 4 -12 1 -19z m-140 -50 c-3 -8 -6 -5 -6 6 -1 11 2 17 5 13
3 -3 4 -12 1 -19z m152 -30 c1 -5 -3 -8 -9 -8 -5 0 -10 12 -9 28 0 24 1 25 9
7 5 -11 9 -23 9 -27z m-152 -75 c-3 -10 -5 -2 -5 17 0 19 2 27 5 18 2 -10 2
-26 0 -35z m-27 -20 c-11 -17 -11 -17 -6 0 3 10 6 24 7 30 0 9 2 9 5 0 3 -7 0
-20 -6 -30z m20 -43 c0 -16 -4 -30 -8 -30 -5 0 -7 14 -4 30 2 17 6 30 8 30 2
0 4 -13 4 -30z m147 -132 c-3 -8 -6 -5 -6 6 -1 11 2 17 5 13 3 -3 4 -12 1 -19z
m-30 -50 c-3 -7 -5 -2 -5 12 0 14 2 19 5 13 2 -7 2 -19 0 -25z m-182 -24 c0
-12 -4 -20 -9 -17 -5 4 -6 -7 -2 -23 5 -21 4 -25 -4 -14 -5 8 -7 28 -4 44 5
21 3 27 -6 21 -8 -5 -11 -4 -7 2 11 18 32 10 32 -13z m172 -36 c-3 -8 -6 -5
-6 6 -1 11 2 17 5 13 3 -3 4 -12 1 -19z m-210 -20 c-3 -8 -6 -5 -6 6 -1 11 2
17 5 13 3 -3 4 -12 1 -19z m220 -30 c-3 -8 -6 -5 -6 6 -1 11 2 17 5 13 3 -3 4
-12 1 -19z m-10 -50 c-3 -7 -5 -2 -5 12 0 14 2 19 5 13 2 -7 2 -19 0 -25z m20
-15 c-3 -10 -5 -2 -5 17 0 19 2 27 5 18 2 -10 2 -26 0 -35z m-13 -19 c3 -8 2
-12 -4 -9 -6 3 -10 10 -10 16 0 14 7 11 14 -7z m11 -55 c-6 -17 -9 -19 -16 -8
-5 8 -9 19 -9 24 0 6 5 3 10 -5 8 -13 10 -12 10 4 0 11 3 17 6 13 3 -3 3 -15
-1 -28z m-270 -34 c0 -29 -3 -39 -10 -31 -13 14 -13 73 0 73 6 0 10 -19 10
-42z m252 -17 c-3 -8 -6 -5 -6 6 -1 11 2 17 5 13 3 -3 4 -12 1 -19z m-307 -8
c0 -5 -2 -10 -4 -10 -3 0 -8 5 -11 10 -3 6 -1 10 4 10 6 0 11 -4 11 -10z m-63
-122 c-3 -8 -6 -5 -6 6 -1 11 2 17 5 13 3 -3 4 -12 1 -19z m30 -10 c-3 -8 -6
-5 -6 6 -1 11 2 17 5 13 3 -3 4 -12 1 -19z m300 -20 c-3 -7 -5 -2 -5 12 0 14
2 19 5 13 2 -7 2 -19 0 -25z m-30 -10 c-3 -8 -6 -5 -6 6 -1 11 2 17 5 13 3 -3
4 -12 1 -19z m-346 -66 c-13 -25 -14 -35 -3 -28 5 3 6 -9 3 -27 l-5 -32 -7 34
c-6 31 7 88 18 77 3 -2 0 -13 -6 -24z m-31 -75 c0 -2 -12 -14 -26 -28 l-27
-24 18 28 c14 22 35 36 35 24z m307 -79 c-3 -8 -6 -5 -6 6 -1 11 2 17 5 13 3
-3 4 -12 1 -19z m-7 -33 c0 -5 -5 -3 -10 5 -5 8 -10 20 -10 25 0 6 5 3 10 -5
5 -8 10 -19 10 -25z m-369 12 c-6 -8 -8 -16 -6 -19 9 -8 -16 -56 -31 -62 -19
-7 -17 4 3 19 9 7 17 21 18 31 1 21 13 44 22 44 3 0 0 -6 -6 -13z m19 -69 c0
-23 -3 -29 -11 -21 -6 6 -8 20 -4 32 9 30 15 26 15 -11z m307 -34 c-3 -3 -12
-4 -19 -1 -8 3 -5 6 6 6 11 1 17 -2 13 -5z m-37 -54 c0 -16 -4 -30 -8 -30 -5
0 -7 14 -4 30 2 17 6 30 8 30 2 0 4 -13 4 -30z m-1 -95 c0 -5 -4 -3 -9 5 -5 8
-9 22 -9 30 0 16 17 -16 18 -35z m-467 -127 c-7 -7 -12 -8 -12 -2 0 14 12 26
19 19 2 -3 -1 -11 -7 -17z m38 -5 c0 -19 -3 -24 -10 -17 -6 6 -8 18 -4 27 9
24 14 21 14 -10z m380 -8 c0 -5 -5 -3 -10 5 -5 8 -10 20 -10 25 0 6 5 3 10 -5
5 -8 10 -19 10 -25z m-448 -27 c-7 -7 -12 -8 -12 -2 0 14 12 26 19 19 2 -3 -1
-11 -7 -17z m-12 -58 c0 8 2 11 5 9 2 -3 0 -18 -4 -35 -8 -26 -9 -26 -10 -5
-1 16 -5 21 -15 18 -10 -4 -13 -1 -9 9 4 11 9 12 19 3 11 -9 14 -8 14 1z m-33
-62 c-3 -7 -5 -2 -5 12 0 14 2 19 5 13 2 -7 2 -19 0 -25z m413 -11 c0 -36 -14
-51 -30 -32 -7 8 -10 18 -6 22 3 3 6 1 6 -5 0 -7 5 -12 11 -12 7 0 9 11 5 30
-3 19 -2 29 4 25 6 -3 10 -16 10 -28z m-37 -67 c-3 -12 -8 -19 -11 -16 -5 6 5
36 12 36 2 0 2 -9 -1 -20z m-436 -102 c-3 -7 -5 -2 -5 12 0 14 2 19 5 13 2 -7
2 -19 0 -25z m-20 -40 c-3 -8 -6 -5 -6 6 -1 11 2 17 5 13 3 -3 4 -12 1 -19z
m382 -36 c1 -7 -3 -10 -9 -7 -5 3 -10 21 -9 38 1 31 1 31 9 7 4 -14 8 -31 9
-38z m-352 16 c-3 -7 -5 -2 -5 12 0 14 2 19 5 13 2 -7 2 -19 0 -25z m368 -37
c-6 -21 -25 -29 -25 -11 0 6 5 10 10 10 6 0 10 8 10 17 0 9 3 14 6 10 3 -3 3
-15 -1 -26z m-75 -165 c0 -2 -7 -6 -15 -10 -8 -3 -15 -1 -15 4 0 6 7 10 15 10
8 0 15 -2 15 -4z m-368 -68 c-8 -8 -9 -4 -5 13 4 13 8 18 11 10 2 -7 -1 -18
-6 -23z m58 -209 c0 -6 -4 -7 -10 -4 -5 3 -10 11 -10 16 0 6 5 7 10 4 6 -3 10
-11 10 -16z m15 -60 c9 -17 14 -33 12 -36 -3 -2 -8 5 -12 16 -3 12 -13 28 -21
36 -9 8 -11 15 -5 15 6 0 18 -14 26 -31z m86 -82 c-10 -9 -11 -8 -5 6 3 10 9
15 12 12 3 -3 0 -11 -7 -18z m198 -48 c0 8 3 12 6 10 2 -3 1 -16 -2 -29 -6
-22 -7 -23 -14 -4 -4 10 -7 30 -7 44 0 23 1 22 8 -5 4 -16 8 -24 9 -16z m-141
-59 c4 -10 0 -10 -12 3 -10 9 -23 17 -31 17 -7 0 -15 7 -18 15 -5 11 0 10 25
-3 18 -10 34 -24 36 -32z m22 35 c19 -23 8 -25 -14 -4 -11 11 -15 19 -9 19 6
0 16 -7 23 -15z m137 -27 c-3 -7 -5 -2 -5 12 0 14 2 19 5 13 2 -7 2 -19 0 -25z
m-72 -87 c-6 -5 -25 10 -25 20 0 5 6 4 14 -3 8 -7 12 -15 11 -17z m74 -74 c1
-4 -12 2 -29 15 -16 12 -30 26 -30 31 0 10 59 -35 59 -46z m38 35 c-12 -2 -16
-9 -12 -20 5 -13 1 -12 -17 3 -13 11 -24 20 -25 20 -1 1 14 1 35 1 20 1 29 -1
19 -4z"/>
<path d="M2176 7759 c156 -193 219 -329 394 -843 140 -416 209 -581 317 -764
113 -194 208 -316 358 -465 89 -90 243 -217 261 -217 3 0 4 21 0 48 -3 26 -10
100 -15 165 l-10 118 -71 77 c-175 189 -266 370 -426 844 -149 441 -228 597
-383 761 -63 66 -65 65 90 42 410 -62 747 -211 947 -419 95 -99 132 -152 184
-262 64 -138 89 -252 95 -439 3 -88 1 -191 -4 -228 -8 -58 -5 -95 21 -254 l30
-187 38 120 c49 151 103 375 119 482 17 119 7 327 -20 420 -117 405 -549 700
-1351 925 -127 36 -482 121 -555 132 -22 4 -49 9 -59 12 -13 4 0 -19 40 -68z"/>
<path d="M3110 7130 c14 -11 32 -26 40 -32 8 -7 19 -11 25 -10 5 2 7 0 3 -4
-4 -4 9 -26 30 -49 74 -82 97 -110 97 -118 0 -5 9 -15 19 -23 11 -8 16 -14 10
-14 -5 0 -5 -3 1 -8 10 -7 41 -67 66 -129 9 -22 16 -28 22 -20 5 7 6 1 2 -16
-4 -19 -2 -26 5 -22 6 3 10 -3 10 -15 0 -11 10 -53 21 -93 12 -39 28 -99 35
-132 8 -33 17 -69 21 -80 3 -11 5 -31 5 -45 -1 -14 5 -72 13 -130 17 -127 24
-215 30 -379 3 -77 10 -128 16 -132 7 -4 9 -17 6 -31 -4 -14 -2 -51 3 -84 6
-32 13 -84 16 -114 5 -54 38 -188 49 -198 9 -10 5 29 -5 49 -7 13 -7 19 0 19
5 0 11 19 11 43 l2 42 7 -40 c4 -22 10 -56 14 -75 l6 -35 -14 35 -15 35 6 -49
c5 -36 3 -47 -6 -42 -6 4 -2 -13 11 -38 12 -25 26 -42 31 -39 6 4 7 1 3 -6 -9
-14 25 -68 77 -123 24 -27 40 -36 56 -33 12 2 19 0 16 -6 -4 -5 -12 -7 -18 -3
-7 3 2 -5 18 -19 17 -14 54 -38 82 -52 46 -24 57 -26 84 -16 39 13 39 13 39 2
0 -5 -8 -11 -17 -13 -40 -9 131 -38 219 -38 l93 1 -34 18 c-19 10 -57 19 -84
20 -28 0 -53 4 -56 7 -3 3 13 5 37 2 49 -4 53 2 13 20 -31 14 -146 132 -171
175 -19 33 -33 35 -42 5 -4 -17 -6 -18 -7 -5 -1 10 4 27 9 37 8 14 5 28 -10
55 -11 20 -20 43 -21 53 0 14 -2 14 -10 -3 -8 -16 -8 -14 -5 11 4 22 -1 39
-14 55 -11 12 -20 27 -20 33 0 6 5 4 11 -4 9 -12 10 -11 4 5 -3 11 -10 38 -15
60 -5 22 -13 61 -19 88 -6 26 -11 56 -11 67 0 13 -5 18 -15 14 -13 -5 -14 -2
-5 21 8 20 7 30 -5 41 -8 9 -15 23 -14 32 0 14 2 13 9 -3 8 -19 9 -18 9 4 1
14 -6 33 -16 43 -11 13 -12 18 -3 18 9 0 11 9 6 33 -4 17 -9 39 -10 47 -2 8
-7 39 -11 68 -4 28 -10 50 -15 47 -4 -3 -10 8 -12 25 -2 16 -1 27 4 24 4 -3 8
2 8 11 0 23 -40 199 -47 205 -3 3 -3 -9 0 -25 3 -17 2 -37 -3 -45 -8 -12 -7
55 1 95 4 17 -64 235 -73 235 -4 0 -8 -4 -8 -10 0 -5 -5 -10 -12 -10 -9 0 -9
3 0 12 17 17 15 38 -11 93 -22 45 -25 47 -36 29 -11 -17 -11 -17 -5 6 3 14 7
27 8 30 0 3 -17 34 -38 68 -25 41 -41 60 -46 52 -5 -8 -10 -9 -14 -2 -3 6 -1
12 6 14 9 3 9 11 -4 29 -33 49 -149 179 -170 190 -23 12 -23 12 -4 -10 11 -11
14 -21 8 -21 -7 0 -12 -5 -12 -11 0 -6 7 -9 14 -6 11 4 13 1 9 -10 -5 -12 -1
-14 14 -9 12 4 25 1 32 -7 8 -11 5 -16 -17 -26 -23 -10 -25 -10 -9 2 9 8 17
17 17 19 0 8 -53 4 -66 -5 -7 -4 -15 0 -18 9 -9 23 -7 31 4 14 5 -8 12 -11 16
-7 4 3 1 13 -6 22 -8 10 -9 15 -1 15 6 0 11 5 11 11 0 5 -4 7 -10 4 -5 -3 -18
-1 -27 5 -16 10 -16 10 2 5 15 -3 21 0 22 13 2 21 -100 99 -124 94 -8 -2 -12
1 -9 6 8 13 -5 23 -84 66 -36 20 -54 27 -40 16z m110 -72 c0 -6 -6 -5 -15 2
-8 7 -15 14 -15 16 0 2 7 1 15 -2 8 -4 15 -11 15 -16z m55 -48 c3 -6 -1 -7 -9
-4 -18 7 -21 14 -7 14 6 0 13 -4 16 -10z m53 -52 c-7 -4 -17 -8 -23 -8 -5 0
-3 4 5 10 8 5 11 12 7 16 -3 4 -13 2 -20 -4 -14 -12 -27 -6 -27 12 0 6 4 4 10
-4 8 -12 10 -12 16 3 6 17 7 17 25 1 15 -14 17 -19 7 -26z m166 -144 c9 -24 7
-27 -9 -10 -17 17 -19 26 -6 26 5 0 12 -7 15 -16z m-56 -43 c-1 -16 -5 -28 -9
-26 -6 5 0 55 7 55 3 0 3 -13 2 -29z m52 -3 c0 -6 -7 -5 -15 2 -8 7 -15 17
-15 22 0 6 7 5 15 -2 8 -7 15 -17 15 -22z m-83 0 c-3 -8 -6 -5 -6 6 -1 11 2
17 5 13 3 -3 4 -12 1 -19z m123 8 c0 -3 -4 -8 -10 -11 -5 -3 -10 -1 -10 4 0 6
5 11 10 11 6 0 10 -2 10 -4z m101 -203 c-11 -16 -11 -15 -5 6 4 17 3 21 -6 16
-9 -6 -11 -4 -5 4 5 9 11 9 17 3 7 -7 6 -16 -1 -29z m-141 7 c0 -11 -4 -20 -9
-20 -5 0 -7 9 -4 20 3 11 7 20 9 20 2 0 4 -9 4 -20z m33 -68 c4 -21 3 -31 -3
-27 -6 3 -10 21 -11 38 0 27 -2 29 -9 12 -10 -24 -12 -10 -3 24 6 22 7 23 13
5 4 -10 10 -34 13 -52z m150 25 c3 -8 -1 -14 -8 -14 -7 0 -11 6 -8 14 3 7 6
13 8 13 2 0 5 -6 8 -13z m24 -69 c-3 -8 -6 -5 -6 6 -1 11 2 17 5 13 3 -3 4
-12 1 -19z m41 -125 c3 -44 -3 -42 -11 5 -4 17 -3 32 1 32 4 0 9 -17 10 -37z
m-18 -1 c0 -5 -7 -9 -15 -9 -8 0 -12 4 -9 9 3 4 9 8 15 8 5 0 9 -4 9 -8z m-23
-54 c-3 -8 -6 -5 -6 6 -1 11 2 17 5 13 3 -3 4 -12 1 -19z m20 0 c-3 -8 -6 -5
-6 6 -1 11 2 17 5 13 3 -3 4 -12 1 -19z m-124 -132 c4 -23 3 -35 -3 -30 -4 5
-9 20 -10 34 -5 57 4 54 13 -4z m14 22 c-3 -8 -6 -5 -6 6 -1 11 2 17 5 13 3
-3 4 -12 1 -19z m-40 -85 c-3 -10 -5 -2 -5 17 0 19 2 27 5 18 2 -10 2 -26 0
-35z m32 -34 c0 13 3 22 6 19 3 -3 2 -25 -2 -49 -7 -43 -7 -43 -14 -14 -4 17
-7 44 -7 60 1 29 1 29 8 -5 6 -26 8 -29 9 -11z m208 9 c-3 -8 -6 -5 -6 6 -1
11 2 17 5 13 3 -3 4 -12 1 -19z m-19 -58 c-6 -57 4 -65 20 -17 11 31 11 31 5
2 -3 -16 -5 -38 -5 -47 0 -10 -6 -18 -15 -18 -9 0 -13 3 -10 7 4 3 3 11 -1 17
-9 11 -4 106 5 106 3 0 3 -22 1 -50z m-208 10 c0 -5 -2 -10 -4 -10 -3 0 -8 5
-11 10 -3 6 -1 10 4 10 6 0 11 -4 11 -10z m-3 -52 c-3 -7 -5 -2 -5 12 0 14 2
19 5 13 2 -7 2 -19 0 -25z m21 -103 c-3 -3 -9 2 -12 12 -6 14 -5 15 5 6 7 -7
10 -15 7 -18z m-21 -57 c-3 -7 -5 -2 -5 12 0 14 2 19 5 13 2 -7 2 -19 0 -25z
m16 -109 c-4 -4 -9 6 -10 24 -1 30 -1 31 8 8 5 -14 6 -28 2 -32z m264 -31 c-3
-8 -6 -5 -6 6 -1 11 2 17 5 13 3 -3 4 -12 1 -19z m10 -80 c-3 -8 -6 -5 -6 6
-1 11 2 17 5 13 3 -3 4 -12 1 -19z m-2 -105 c-9 -15 -13 -19 -9 -8 3 11 9 31
12 45 4 18 7 20 10 8 2 -9 -4 -29 -13 -45z m-228 -105 c-3 -8 -6 -5 -6 6 -1
11 2 17 5 13 3 -3 4 -12 1 -19z m50 -10 c-3 -7 -5 -2 -5 12 0 14 2 19 5 13 2
-7 2 -19 0 -25z m260 -120 c-3 -7 -5 -2 -5 12 0 14 2 19 5 13 2 -7 2 -19 0
-25z m-260 -40 c-3 -7 -5 -2 -5 12 0 14 2 19 5 13 2 -7 2 -19 0 -25z m260 0
c-3 -8 -6 -5 -6 6 -1 11 2 17 5 13 3 -3 4 -12 1 -19z m-206 -95 c-12 -20 -14
-14 -5 12 4 9 9 14 11 11 3 -2 0 -13 -6 -23z m311 -27 c7 4 8 2 4 -5 -10 -15
-26 -4 -25 17 1 15 2 15 6 -1 2 -9 9 -14 15 -11z m-255 -12 c-3 -3 -12 -4 -19
-1 -8 3 -5 6 6 6 11 1 17 -2 13 -5z m23 -39 c0 -8 -2 -15 -4 -15 -2 0 -6 7
-10 15 -3 8 -1 15 4 15 6 0 10 -7 10 -15z m260 -6 c0 -6 -4 -7 -10 -4 -5 3
-10 11 -10 16 0 6 5 7 10 4 6 -3 10 -11 10 -16z m47 -46 c2 -6 -4 -19 -14 -29
-13 -12 -14 -19 -5 -22 17 -5 5 -22 -16 -22 -10 0 -13 3 -7 8 6 4 10 21 9 37
0 17 1 34 3 38 6 10 26 4 30 -10z m-232 -3 c-3 -5 -13 -10 -21 -10 -8 0 -12 5
-9 10 3 6 13 10 21 10 8 0 12 -4 9 -10z m20 -20 c3 -5 1 -10 -4 -10 -6 0 -11
5 -11 10 0 6 2 10 4 10 3 0 8 -4 11 -10z m250 -20 c0 -7 -6 -14 -13 -16 -7 -1
-8 0 -2 3 16 8 11 26 -6 19 -9 -3 -12 -2 -9 5 9 13 30 6 30 -11z m35 -20 c0
-5 -7 -10 -16 -10 -8 0 -12 5 -9 10 3 6 10 10 16 10 5 0 9 -4 9 -10z m-190
-10 c0 -5 -8 -10 -17 -10 -15 0 -16 2 -3 10 19 12 20 12 20 0z m140 -5 c0 -6
-73 -25 -78 -20 -2 2 11 8 29 14 41 11 49 12 49 6z m43 -26 c7 0 2 -4 -10 -9
-11 -5 -31 -6 -44 -3 -22 6 -22 7 -3 14 10 4 25 6 32 3 8 -2 19 -4 25 -5z m47
-3 c0 -2 -7 -6 -15 -10 -8 -3 -15 -1 -15 4 0 6 7 10 15 10 8 0 15 -2 15 -4z"/>
<path d="M4100 4980 c0 -5 5 -10 10 -10 6 0 10 5 10 10 0 6 -4 10 -10 10 -5 0
-10 -4 -10 -10z"/>
<path d="M3705 4541 c-11 -5 -31 -7 -45 -6 -14 1 -28 -3 -32 -9 -5 -8 -8 -7
-8 2 0 7 -15 12 -40 12 -25 0 -40 -5 -40 -12 0 -9 -3 -10 -8 -2 -7 11 -261 1
-292 -12 -8 -4 -42 -9 -75 -11 -33 -2 -75 -8 -93 -13 -18 -5 -49 -6 -69 -3
-26 4 -34 3 -29 -5 4 -7 2 -10 -7 -6 -8 3 -59 -3 -113 -12 -54 -9 -121 -19
-149 -21 -27 -3 -52 -8 -55 -12 -3 -4 -16 -7 -30 -8 -51 -2 -165 -29 -150 -36
8 -4 3 -5 -12 -2 -38 7 -85 -5 -66 -17 9 -6 6 -8 -12 -7 -41 3 -74 -1 -67 -8
9 -8 -24 -32 -43 -32 -8 0 -4 5 9 10 13 5 21 12 18 15 -6 7 -194 -43 -212 -55
-5 -4 -49 -20 -97 -36 -48 -16 -85 -32 -82 -36 2 -4 -6 -5 -18 -1 -16 4 -19 2
-13 -8 5 -9 4 -11 -3 -6 -17 10 -250 -116 -268 -145 -4 -8 -3 -9 4 -5 7 4 12
2 12 -4 0 -6 -8 -9 -18 -6 -12 4 -31 -8 -60 -35 -23 -23 -42 -45 -42 -49 0 -9
97 -94 145 -127 54 -36 163 -93 180 -93 8 0 15 -4 15 -8 0 -12 49 -34 60 -27
5 3 10 1 12 -5 3 -11 132 -59 258 -97 47 -14 122 -37 167 -50 45 -14 97 -25
117 -26 19 0 33 -5 30 -9 -3 -4 8 -8 25 -8 16 0 42 -5 57 -11 16 -5 80 -19
143 -29 64 -11 126 -22 138 -25 17 -4 23 0 26 17 4 21 4 21 6 2 1 -17 12 -22
64 -32 130 -24 273 -42 307 -39 19 2 44 0 56 -4 25 -9 183 -22 276 -23 36 -1
64 -4 62 -8 -5 -8 183 -11 471 -8 94 1 179 1 190 1 58 -2 91 1 99 9 6 6 15 10
20 10 6 0 4 -5 -4 -10 -14 -9 123 -7 240 4 25 2 110 9 190 15 80 7 159 14 175
18 17 4 34 6 38 5 5 -1 45 4 90 13 45 8 104 17 131 21 28 3 54 7 58 10 5 3 21
7 36 10 96 16 223 49 327 86 103 36 262 133 272 165 6 18 -45 66 -62 59 -8 -3
-14 -1 -12 5 1 6 -8 18 -20 26 -16 10 -23 12 -23 4 0 -7 -5 -9 -10 -6 -6 4 -8
10 -5 14 2 5 -15 16 -38 26 -23 9 -67 28 -97 41 -36 15 -57 19 -61 12 -5 -7
-8 -7 -10 1 -6 16 -139 53 -167 46 -13 -3 -21 -2 -18 3 5 9 0 11 -49 15 -16 1
-32 5 -35 9 -4 5 -109 21 -295 43 -166 20 -244 24 -500 24 -249 -1 -346 -5
-485 -24 -14 -2 -54 -6 -89 -10 -36 -3 -73 -11 -84 -16 -10 -6 -25 -8 -33 -5
-28 11 -331 -61 -360 -85 -7 -6 -18 -8 -23 -4 -6 3 -25 0 -43 -8 -18 -8 -53
-22 -78 -31 -54 -19 -154 -75 -147 -83 3 -2 17 3 31 12 14 9 26 16 28 15 7 -4
84 13 93 21 6 4 51 15 100 24 105 20 125 29 120 53 -2 12 4 17 23 19 25 1 25
0 7 -10 -26 -16 -32 -41 -8 -33 10 3 32 8 48 10 17 2 53 7 80 11 84 11 108 14
155 16 l45 2 -35 7 c-26 6 -15 7 40 6 41 0 125 3 185 8 140 10 481 11 605 1
52 -4 115 -9 140 -11 50 -3 106 -11 132 -20 10 -3 18 -1 18 5 0 8 6 8 18 2 26
-15 141 -33 154 -25 7 4 8 3 4 -4 -7 -11 16 -17 54 -14 8 1 24 -3 35 -8 11 -5
56 -21 100 -36 107 -35 184 -75 231 -120 29 -28 35 -38 24 -42 -8 -3 -28 -15
-45 -27 -52 -39 -159 -84 -253 -107 -50 -12 -89 -25 -86 -30 3 -4 -1 -5 -8 -3
-8 3 -56 -1 -108 -10 -52 -8 -113 -17 -135 -19 -22 -3 -62 -9 -90 -13 -27 -4
-73 -6 -101 -4 -33 2 -63 -3 -84 -14 -18 -9 -29 -12 -26 -6 5 8 -14 10 -61 7
-37 -3 -184 -5 -325 -6 -193 -1 -258 -4 -258 -13 0 -9 -2 -9 -8 0 -5 7 -54 14
-132 18 -69 4 -143 8 -165 10 -22 2 -78 5 -125 8 -47 3 -92 8 -100 11 -8 3
-42 8 -75 11 -33 2 -83 8 -111 13 -28 4 -70 8 -92 7 -23 -1 -42 3 -42 7 0 4
-10 8 -22 8 -58 0 -478 86 -565 115 -26 9 -52 14 -60 11 -7 -3 -13 -2 -13 2 0
4 -14 13 -32 20 -25 9 -35 9 -47 -1 -12 -9 -13 -9 -7 1 4 7 0 14 -11 18 -10 4
-72 31 -139 60 -66 30 -127 52 -136 49 -9 -4 -18 0 -21 9 -4 11 -1 13 11 9 13
-4 13 -2 -3 10 -10 8 -25 13 -32 10 -9 -4 -11 0 -7 11 3 9 2 16 -4 16 -5 0
-12 -7 -16 -15 -3 -8 -10 -15 -16 -15 -6 0 -4 7 5 16 12 12 13 19 4 30 -6 8
-16 11 -21 8 -6 -4 -6 1 0 13 11 20 85 79 152 122 28 18 30 21 10 16 -14 -4
-35 -13 -47 -21 -28 -17 -30 -17 -36 0 -4 10 -1 13 9 9 8 -3 20 -1 27 4 21 17
77 33 77 22 0 -9 40 7 50 21 3 3 31 17 62 29 32 13 56 26 54 30 -2 3 8 7 22 7
15 1 59 13 97 27 39 14 91 31 117 37 26 7 46 15 44 19 -2 3 6 6 17 7 30 2 91
13 157 29 30 7 78 16 105 19 86 11 185 30 185 36 0 3 19 5 43 6 23 1 83 5 132
9 68 6 84 10 65 16 -16 5 -3 7 35 3 33 -3 55 -1 48 3 -6 4 17 9 50 10 34 0
109 4 167 7 83 5 1030 9 1050 5 3 -1 46 -3 95 -5 50 -3 131 -9 180 -14 50 -6
103 -8 119 -4 18 4 26 2 22 -4 -3 -6 35 -13 102 -17 158 -12 162 -12 227 -23
33 -6 67 -10 75 -10 19 0 189 -30 249 -43 94 -21 122 -22 115 -5 -4 10 -1 16
10 16 9 0 13 -6 10 -15 -6 -16 3 -21 49 -29 16 -3 44 -10 63 -16 19 -7 42 -9
50 -6 9 3 12 1 9 -4 -3 -6 5 -10 20 -10 14 0 52 -9 84 -20 54 -18 62 -18 88
-5 41 22 53 18 18 -5 l-30 -20 25 -2 c14 0 31 -1 37 -1 7 1 10 -4 6 -10 -4 -6
0 -8 10 -4 10 4 17 2 17 -4 0 -6 6 -9 13 -6 8 3 36 -6 63 -20 27 -14 72 -34
99 -45 l50 -19 -29 26 c-17 14 -36 23 -43 20 -8 -2 -11 0 -8 5 9 15 -193 130
-229 130 -8 0 -16 5 -18 11 -3 9 -9 9 -25 0 -12 -6 -28 -11 -35 -10 -7 0 -2 5
11 10 50 20 -22 43 -79 26 l-25 -8 25 15 c19 11 22 16 10 20 -62 23 -230 76
-239 76 -7 0 -9 -5 -5 -11 4 -8 -1 -9 -17 -4 -40 12 -58 26 -24 19 17 -4 28
-4 25 -2 -7 8 -160 49 -185 51 -11 0 -22 4 -25 7 -3 4 -45 14 -95 24 -49 9
-98 19 -107 22 -10 3 -18 1 -18 -5 0 -5 8 -12 18 -14 13 -4 12 -5 -5 -6 -14
-1 -24 6 -28 19 -4 13 -15 20 -33 20 -15 0 -63 7 -107 14 -54 10 -82 11 -86 4
-4 -6 -8 -7 -10 0 -2 5 -14 13 -26 16 -19 6 -23 3 -24 -16 -1 -23 -1 -23 -8 2
-6 22 -13 25 -51 26 -25 1 -79 6 -120 12 -41 6 -78 8 -82 5 -5 -2 -15 0 -21 6
-7 5 -62 13 -122 16 -61 3 -130 8 -155 11 -25 2 -170 7 -324 10 -231 6 -280 4
-287 -7 -6 -10 -9 -10 -9 -1 0 9 -39 12 -162 11 -90 0 -172 -4 -183 -8z m138
-8 c-7 -2 -19 -2 -25 0 -7 3 -2 5 12 5 14 0 19 -2 13 -5z m514 1 c-3 -3 -12
-4 -19 -1 -8 3 -5 6 6 6 11 1 17 -2 13 -5z m-1154 -51 c-7 -2 -21 -2 -30 0
-10 3 -4 5 12 5 17 0 24 -2 18 -5z m1740 0 c-7 -2 -19 -2 -25 0 -7 3 -2 5 12
5 14 0 19 -2 13 -5z m70 0 c-7 -2 -21 -2 -30 0 -10 3 -4 5 12 5 17 0 24 -2 18
-5z m-1966 -19 c-3 -3 -12 -4 -19 -1 -8 3 -5 6 6 6 11 1 17 -2 13 -5z m156 -1
c-7 -2 -19 -2 -25 0 -7 3 -2 5 12 5 14 0 19 -2 13 -5z m1960 0 c-7 -2 -19 -2
-25 0 -7 3 -2 5 12 5 14 0 19 -2 13 -5z m-2245 -10 c-10 -2 -26 -2 -35 0 -10
3 -2 5 17 5 19 0 27 -2 18 -5z m-61 -9 c-3 -3 -12 -4 -19 -1 -8 3 -5 6 6 6 11
1 17 -2 13 -5z m380 0 c-3 -3 -12 -4 -19 -1 -8 3 -5 6 6 6 11 1 17 -2 13 -5z
m2100 0 c-3 -3 -12 -4 -19 -1 -8 3 -5 6 6 6 11 1 17 -2 13 -5z m-2687 -44 c0
-5 -7 -7 -15 -4 -8 4 -15 8 -15 10 0 2 7 4 15 4 8 0 15 -4 15 -10z m-73 -6
c-3 -3 -12 -4 -19 -1 -8 3 -5 6 6 6 11 1 17 -2 13 -5z m-44 -11 c-7 -2 -19 -2
-25 0 -7 3 -2 5 12 5 14 0 19 -2 13 -5z m105 -2 c11 -6 10 -10 -4 -15 -9 -3
-19 -4 -22 -1 -3 3 1 5 9 6 8 1 3 5 -11 9 -21 7 -21 8 -5 9 11 0 26 -3 33 -8z
m2975 -8 c-7 -2 -19 -2 -25 0 -7 3 -2 5 12 5 14 0 19 -2 13 -5z m-2123 -29 c0
-2 -14 -4 -31 -4 -16 0 -28 4 -25 9 5 8 56 3 56 -5z m1677 10 c-3 -3 -12 -4
-19 -1 -8 3 -5 6 6 6 11 1 17 -2 13 -5z m43 -4 c0 -5 -8 -10 -17 -10 -15 0
-16 2 -3 10 19 12 20 12 20 0z m-1831 -9 c12 -8 9 -11 -12 -17 -16 -3 -31 -4
-34 0 -4 3 5 7 18 7 21 1 21 2 -6 9 -28 7 -28 8 -5 9 14 0 32 -3 39 -8z m1904
-8 c-7 -2 -19 -2 -25 0 -7 3 -2 5 12 5 14 0 19 -2 13 -5z m84 1 c-3 -3 -12 -4
-19 -1 -8 3 -5 6 6 6 11 1 17 -2 13 -5z m518 -4 c3 -5 -3 -10 -14 -10 -12 0
-21 5 -21 10 0 6 6 10 14 10 8 0 18 -4 21 -10z m-3555 -10 c0 -5 -5 -10 -11
-10 -5 0 -7 5 -4 10 3 6 8 10 11 10 2 0 4 -4 4 -10z m947 -6 c-3 -3 -12 -4
-19 -1 -8 3 -5 6 6 6 11 1 17 -2 13 -5z m2090 0 c-3 -3 -12 -4 -19 -1 -8 3 -5
6 6 6 11 1 17 -2 13 -5z m81 -1 c-10 -2 -26 -2 -35 0 -10 3 -2 5 17 5 19 0 27
-2 18 -5z m-3165 -10 c-7 -2 -21 -2 -30 0 -10 3 -4 5 12 5 17 0 24 -2 18 -5z
m3732 -3 c3 -5 -1 -10 -10 -10 -9 0 -13 5 -10 10 3 6 8 10 10 10 2 0 7 -4 10
-10z m-3860 -10 c3 -5 -1 -10 -10 -10 -9 0 -13 5 -10 10 3 6 8 10 10 10 2 0 7
-4 10 -10z m3810 -10 c-3 -5 -14 -10 -23 -10 -15 0 -15 2 -2 10 20 13 33 13
25 0z m-3103 -10 c27 0 21 -5 -15 -14 -17 -4 -26 -3 -23 3 3 5 3 11 -1 14 -5
2 -2 2 5 0 8 -1 23 -3 34 -3z m3048 -5 c53 -11 58 -13 30 -15 -30 -1 -32 -3
-15 -11 17 -8 17 -9 -5 -4 -14 2 -32 5 -40 6 -8 0 -4 5 10 10 19 6 13 8 -25 5
-27 -2 -41 -1 -31 1 16 4 17 7 5 14 -18 11 -8 11 71 -6z m-3840 -5 c0 -5 -5
-10 -11 -10 -5 0 -7 5 -4 10 3 6 8 10 11 10 2 0 4 -4 4 -10z m684 -2 c-3 -4
-9 -8 -15 -8 -5 0 -9 4 -9 8 0 5 7 9 15 9 8 0 12 -4 9 -9z m196 3 c-14 -4 -38
-11 -55 -14 l-30 -6 30 14 c17 8 41 14 55 14 l25 -1 -25 -7z m2823 2 c-7 -2
-19 -2 -25 0 -7 3 -2 5 12 5 14 0 19 -2 13 -5z m-3736 -19 c-3 -3 -12 -4 -19
-1 -8 3 -5 6 6 6 11 1 17 -2 13 -5z m4143 -4 c8 -5 11 -10 5 -10 -5 0 -17 5
-25 10 -8 5 -10 10 -5 10 6 0 17 -5 25 -10z m-4145 -20 l30 -8 -30 -1 c-16 0
-39 7 -50 16 l-20 16 20 -8 c11 -4 34 -11 50 -15z m812 14 c-3 -3 -12 -4 -19
-1 -8 3 -5 6 6 6 11 1 17 -2 13 -5z m-882 -13 c6 -11 -33 -26 -42 -17 -4 3 1
6 11 6 9 0 14 5 11 10 -3 6 -2 10 4 10 5 0 12 -4 16 -9z m4289 -31 c-6 -6 -10
-3 -10 10 0 13 4 16 10 10 7 -7 7 -13 0 -20z m-24 10 c0 -5 -7 -10 -16 -10 -8
0 -12 5 -9 10 3 6 10 10 16 10 5 0 9 -4 9 -10z m-3533 -6 c-3 -3 -12 -4 -19
-1 -8 3 -5 6 6 6 11 1 17 -2 13 -5z m-100 -10 c-3 -3 -12 -4 -19 -1 -8 3 -5 6
6 6 11 1 17 -2 13 -5z m3723 -24 c-8 -6 -22 -10 -30 -10 -8 0 -4 6 10 13 27
15 44 12 20 -3z m-4506 -6 c20 -8 21 -20 2 -27 -10 -4 -13 -1 -9 9 7 19 -12
18 -43 -2 -13 -9 -27 -14 -30 -11 -3 3 7 12 23 20 34 18 37 19 57 11z m4616
-18 c0 -2 -7 -7 -16 -10 -8 -3 -12 -2 -9 4 6 10 25 14 25 6z m25 -16 c-3 -5
-11 -10 -16 -10 -6 0 -7 5 -4 10 3 6 11 10 16 10 6 0 7 -4 4 -10z m-4028 -16
c-3 -3 -12 -4 -19 -1 -8 3 -5 6 6 6 11 1 17 -2 13 -5z m4073 -6 c0 -11 -12
-10 -30 2 -12 7 -10 9 8 7 12 0 22 -5 22 -9z m-4110 -8 c0 -5 -5 -10 -11 -10
-5 0 -7 5 -4 10 3 6 8 10 11 10 2 0 4 -4 4 -10z m-726 -41 c-9 -15 -34 -10
-28 5 3 8 12 12 20 9 8 -3 11 -9 8 -14z m-82 -41 c-7 -7 -12 -8 -12 -2 0 14
12 26 19 19 2 -3 -1 -11 -7 -17z m625 16 c-3 -3 -12 -4 -19 -1 -8 3 -5 6 6 6
11 1 17 -2 13 -5z m2613 -15 c-11 -8 2 -9 50 -6 36 2 54 2 40 -1 l-25 -5 25
-7 25 -6 -27 -6 c-16 -3 -25 -1 -21 5 3 5 -12 8 -40 6 -25 -2 -43 -1 -40 4 2
4 -6 7 -19 8 -23 1 -23 1 2 9 36 12 47 11 30 -1z m-475 -9 c-11 -5 -31 -8 -45
-8 -23 0 -22 1 5 8 42 11 65 11 40 0z m338 3 c-7 -2 -19 -2 -25 0 -7 3 -2 5
12 5 14 0 19 -2 13 -5z m-3142 -23 c-13 -11 -17 -20 -10 -20 7 0 10 -3 6 -6
-3 -3 -11 -3 -17 1 -12 8 16 44 35 44 6 0 -1 -9 -14 -19z m2647 13 c-10 -2
-26 -2 -35 0 -10 3 -2 5 17 5 19 0 27 -2 18 -5z m779 1 c-3 -3 -12 -4 -19 -1
-8 3 -5 6 6 6 11 1 17 -2 13 -5z m-3367 -8 c0 -3 -4 -8 -10 -11 -5 -3 -10 -1
-10 4 0 6 5 11 10 11 6 0 10 -2 10 -4z m2523 -3 c-7 -2 -19 -2 -25 0 -7 3 -2
5 12 5 14 0 19 -2 13 -5z m284 1 c-3 -3 -12 -4 -19 -1 -8 3 -5 6 6 6 11 1 17
-2 13 -5z m360 0 c-3 -3 -12 -4 -19 -1 -8 3 -5 6 6 6 11 1 17 -2 13 -5z m-831
-19 c-8 -8 -20 -15 -27 -15 -7 0 -4 6 7 15 25 19 40 19 20 0z m59 5 c8 -13 -5
-13 -25 0 -13 8 -13 10 2 10 9 0 20 -4 23 -10z m180 0 c-28 -12 -37 -12 -30 0
3 6 16 10 28 9 21 0 21 -1 2 -9z m108 3 c-7 -2 -19 -2 -25 0 -7 3 -2 5 12 5
14 0 19 -2 13 -5z m-423 -13 c-13 -8 -12 -10 4 -10 11 0 17 -3 13 -6 -3 -4
-13 -4 -22 0 -18 6 -11 26 8 26 7 0 6 -4 -3 -10z m-1730 -25 c-40 -29 -40 -29
-40 -10 0 8 6 12 13 9 8 -3 20 2 27 11 7 8 17 15 23 15 6 0 -4 -11 -23 -25z
m-570 5 c0 -5 -5 -10 -11 -10 -5 0 -7 5 -4 10 3 6 8 10 11 10 2 0 4 -4 4 -10z
m40 -5 c11 -13 10 -14 -4 -9 -9 3 -16 10 -16 15 0 13 6 11 20 -6z m2573 8 c-7
-2 -21 -2 -30 0 -10 3 -4 5 12 5 17 0 24 -2 18 -5z m-380 -10 c-7 -2 -21 -2
-30 0 -10 3 -4 5 12 5 17 0 24 -2 18 -5z m160 0 c-7 -2 -19 -2 -25 0 -7 3 -2
5 12 5 14 0 19 -2 13 -5z m90 0 c-7 -2 -19 -2 -25 0 -7 3 -2 5 12 5 14 0 19
-2 13 -5z m932 -3 c3 -5 -1 -10 -9 -10 -8 0 -18 5 -21 10 -3 6 1 10 9 10 8 0
18 -4 21 -10z m-1283 -13 c-15 -7 -26 -7 -33 0 -6 6 1 10 23 10 30 0 30 -1 10
-10z m173 3 c-11 -5 -31 -8 -45 -8 -23 0 -22 1 5 8 42 11 65 11 40 0z m1158
-7 c-7 -2 -19 -2 -25 0 -7 3 -2 5 12 5 14 0 19 -2 13 -5z m77 -3 c8 -5 11 -10
5 -10 -5 0 -17 5 -25 10 -8 5 -10 10 -5 10 6 0 17 -5 25 -10z m377 4 c-3 -3
-12 -4 -19 -1 -8 3 -5 6 6 6 11 1 17 -2 13 -5z m-87 -14 c0 -5 -4 -10 -10 -10
-5 0 -10 5 -10 10 0 6 5 10 10 10 6 0 10 -4 10 -10z m145 0 c3 -6 -1 -7 -9 -4
-18 7 -21 14 -7 14 6 0 13 -4 16 -10z m-42 -7 c-7 -2 -19 -2 -25 0 -7 3 -2 5
12 5 14 0 19 -2 13 -5z m107 -3 c-8 -5 -22 -9 -30 -9 -10 0 -8 3 5 9 27 12 43
12 25 0z m-2040 -10 c8 -5 11 -10 5 -10 -5 0 -17 5 -25 10 -8 5 -10 10 -5 10
6 0 17 -5 25 -10z m-40 -20 c-8 -5 -22 -9 -30 -9 -10 0 -8 3 5 9 27 12 43 12
25 0z m1890 -10 c-13 -8 -12 -10 4 -10 11 0 17 -2 14 -5 -3 -3 -20 -2 -38 2
-29 5 -31 7 -15 14 11 4 27 8 35 8 13 1 13 0 0 -9z m-3730 -10 c0 -5 -4 -10
-10 -10 -5 0 -10 5 -10 10 0 6 5 10 10 10 6 0 10 -4 10 -10z m1755 0 c-3 -5
-13 -10 -21 -10 -8 0 -12 5 -9 10 3 6 13 10 21 10 8 0 12 -4 9 -10z m2328 -7
c-7 -2 -19 -2 -25 0 -7 3 -2 5 12 5 14 0 19 -2 13 -5z m-2398 -13 c-3 -5 -12
-10 -18 -10 -7 0 -6 4 3 10 19 12 23 12 15 0z m-1595 -35 c23 -9 28 -14 15
-14 -11 0 -31 6 -45 14 -31 18 -16 18 30 0z m4120 1 c0 -3 -4 -8 -10 -11 -5
-3 -10 -1 -10 4 0 6 5 11 10 11 6 0 10 -2 10 -4z m-285 -25 c-3 -6 -11 -11
-16 -11 -5 0 -4 6 3 14 14 16 24 13 13 -3z m-3775 -1 c0 -5 -4 -10 -10 -10 -5
0 -10 5 -10 10 0 6 5 10 10 10 6 0 10 -4 10 -10z m370 -10 c0 -5 8 -10 18 -11
14 0 14 -2 -3 -9 -27 -12 -43 -12 -25 0 13 8 12 10 -2 10 -10 0 -18 5 -18 10
0 6 7 10 15 10 8 0 15 -4 15 -10z m70 -15 c0 -2 -6 -5 -13 -8 -8 -3 -14 1 -14
8 0 7 6 11 14 8 7 -3 13 -6 13 -8z m3635 -5 c-3 -5 -1 -10 5 -10 6 0 8 -5 4
-12 -6 -9 -9 -9 -12 0 -2 7 -11 12 -20 12 -13 0 -14 -2 -3 -9 8 -5 9 -11 3
-15 -19 -12 -25 17 -7 31 22 15 39 17 30 3z m41 -6 c-5 -12 -2 -15 11 -10 15
6 15 4 -2 -14 -10 -11 -23 -20 -29 -20 -6 0 -5 4 2 9 7 4 12 12 11 17 -3 16 1
34 7 34 3 0 3 -7 0 -16z m-3947 -8 c-15 -13 -49 -25 -49 -17 0 5 8 12 18 14
24 6 36 8 31 3z m356 -16 c3 -6 -1 -7 -9 -4 -18 7 -21 14 -7 14 6 0 13 -4 16
-10z m45 -20 c8 -5 11 -10 5 -10 -5 0 -17 5 -25 10 -8 5 -10 10 -5 10 6 0 17
-5 25 -10z m-340 -10 c24 -15 7 -18 -25 -4 -23 10 -25 13 -10 13 11 1 27 -3
35 -9z m329 -9 c10 -6 3 -9 -22 -8 -22 1 -32 4 -24 9 16 10 29 10 46 -1z m41
-1 c0 -5 -5 -10 -11 -10 -5 0 -7 5 -4 10 3 6 8 10 11 10 2 0 4 -4 4 -10z
m-210 -30 c0 -5 -4 -10 -9 -10 -6 0 -13 5 -16 10 -3 6 1 10 9 10 9 0 16 -4 16
-10z m3625 0 c13 -6 15 -9 5 -9 -8 0 -22 4 -30 9 -18 12 -2 12 25 0z m-3609
-22 c-9 -5 -22 -7 -29 -4 -7 2 -4 5 6 5 9 1 17 6 17 12 0 5 5 7 11 3 8 -5 6
-10 -5 -16z m3424 12 c0 -5 -5 -10 -11 -10 -5 0 -7 5 -4 10 3 6 8 10 11 10 2
0 4 -4 4 -10z m-3473 -6 c-3 -3 -12 -4 -19 -1 -8 3 -5 6 6 6 11 1 17 -2 13 -5z
m110 0 c-3 -3 -12 -4 -19 -1 -8 3 -5 6 6 6 11 1 17 -2 13 -5z m3513 -9 c-7 -8
-18 -15 -24 -15 -6 0 -2 7 8 15 25 19 32 19 16 0z m-190 1 c0 -3 -13 -14 -30
-26 -16 -12 -30 -18 -30 -13 0 4 12 15 28 25 32 19 32 19 32 14z m-3353 -12
c-3 -3 -12 -4 -19 -1 -8 3 -5 6 6 6 11 1 17 -2 13 -5z m373 -10 c30 -3 32 -2
10 5 -21 7 -21 9 -5 9 11 0 29 -3 40 -8 17 -6 15 -9 -16 -15 -24 -4 -46 -1
-70 9 -19 9 -25 14 -14 10 11 -3 36 -8 55 -10z m-323 0 c-3 -3 -12 -4 -19 -1
-8 3 -5 6 6 6 11 1 17 -2 13 -5z m3343 -4 c-8 -5 -22 -9 -30 -9 -10 0 -8 3 5
9 27 12 43 12 25 0z m-2881 -16 c10 -9 -35 -3 -49 6 -11 8 -7 9 15 4 17 -4 32
-8 34 -10z m2766 -4 c3 -5 1 -10 -5 -10 -6 0 -8 -4 -5 -10 8 -13 -5 -13 -25 0
-13 8 -12 10 3 10 10 0 15 5 12 10 -3 6 -2 10 4 10 5 0 13 -4 16 -10z m150 0
c3 -6 -1 -7 -9 -4 -18 7 -21 14 -7 14 6 0 13 -4 16 -10z m-3205 -10 c-14 -4
-34 -8 -45 -8 -16 0 -15 2 5 8 14 4 34 8 45 8 16 0 15 -2 -5 -8z m3097 -6 c-3
-3 -12 -4 -19 -1 -8 3 -5 6 6 6 11 1 17 -2 13 -5z m-2997 -25 c11 -6 9 -8 -10
-9 -15 0 -30 4 -35 9 -6 5 -19 12 -30 15 -11 3 -2 3 20 0 22 -3 47 -10 55 -15z
m53 14 c-7 -2 -21 -2 -30 0 -10 3 -4 5 12 5 17 0 24 -2 18 -5z m387 -19 l45
-7 -49 -14 c-26 -8 -50 -12 -53 -9 -3 3 10 10 28 15 l34 11 -31 -3 c-17 -2
-36 3 -44 11 -11 12 -10 13 6 9 10 -3 39 -9 64 -13z m2432 9 c-13 -3 -19 -9
-16 -15 5 -8 1 -9 -10 -5 -10 4 -21 7 -24 8 -16 1 35 18 53 17 17 -1 16 -1 -3
-5z m105 -9 c-3 -3 -12 -4 -19 -1 -8 3 -5 6 6 6 11 1 17 -2 13 -5z m-2924 -11
c-7 -2 -19 -2 -25 0 -7 3 -2 5 12 5 14 0 19 -2 13 -5z m2862 -3 c-3 -5 -12
-10 -18 -10 -7 0 -6 4 3 10 19 12 23 12 15 0z m-2368 -6 c-3 -3 -12 -4 -19 -1
-8 3 -5 6 6 6 11 1 17 -2 13 -5z m-66 -22 c-7 -2 -18 1 -23 6 -8 8 -4 9 13 5
13 -4 18 -8 10 -11z m2304 8 c-3 -5 -10 -10 -16 -10 -5 0 -9 5 -9 10 0 6 7 10
16 10 8 0 12 -4 9 -10z m-2525 -10 c0 -5 -5 -10 -11 -10 -5 0 -7 5 -4 10 3 6
8 10 11 10 2 0 4 -4 4 -10z m148 -7 c-10 -2 -26 -2 -35 0 -10 3 -2 5 17 5 19
0 27 -2 18 -5z m2209 1 c-3 -3 -12 -4 -19 -1 -8 3 -5 6 6 6 11 1 17 -2 13 -5z
m76 -1 c-7 -2 -19 -2 -25 0 -7 3 -2 5 12 5 14 0 19 -2 13 -5z m-2366 -9 c-3
-3 -12 -4 -19 -1 -8 3 -5 6 6 6 11 1 17 -2 13 -5z m171 -1 c-10 -2 -26 -2 -35
0 -10 3 -2 5 17 5 19 0 27 -2 18 -5z m-105 -10 c-7 -2 -21 -2 -30 0 -10 3 -4
5 12 5 17 0 24 -2 18 -5z m460 0 c-7 -2 -21 -2 -30 0 -10 3 -4 5 12 5 17 0 24
-2 18 -5z m1664 1 c-3 -3 -12 -4 -19 -1 -8 3 -5 6 6 6 11 1 17 -2 13 -5z m-11
-22 c-3 -2 -22 -6 -43 -7 -21 -1 -30 0 -20 2 9 3 15 8 13 12 -3 4 9 5 25 3 16
-2 28 -7 25 -10z m61 12 c-3 -3 -12 -4 -19 -1 -8 3 -5 6 6 6 11 1 17 -2 13 -5z
m-1680 -10 c-3 -3 -12 -4 -19 -1 -8 3 -5 6 6 6 11 1 17 -2 13 -5z m143 -4 c11
-7 5 -8 -20 -4 -43 8 -51 14 -19 14 13 0 31 -5 39 -10z m83 3 c-7 -2 -21 -2
-30 0 -10 3 -4 5 12 5 17 0 24 -2 18 -5z m87 3 c0 -3 -4 -8 -10 -11 -5 -3 -10
-1 -10 4 0 6 5 11 10 11 6 0 10 -2 10 -4z m1060 -6 c0 -5 -2 -10 -4 -10 -3 0
-8 5 -11 10 -3 6 -1 10 4 10 6 0 11 -4 11 -10z m55 1 c-19 -8 -19 -8 0 -19 18
-10 18 -11 3 -12 -10 0 -18 5 -18 10 0 6 -8 10 -17 11 -15 0 -15 2 2 9 11 5
27 9 35 9 9 0 8 -3 -5 -8z m-118 -7 c-3 -3 -12 -4 -19 -1 -8 3 -5 6 6 6 11 1
17 -2 13 -5z m180 0 c-3 -3 -12 -4 -19 -1 -8 3 -5 6 6 6 11 1 17 -2 13 -5z
m-1284 -11 c-7 -2 -19 -2 -25 0 -7 3 -2 5 12 5 14 0 19 -2 13 -5z m994 1 c-3
-3 -12 -4 -19 -1 -8 3 -5 6 6 6 11 1 17 -2 13 -5z m-904 -21 c-7 -2 -21 -2
-30 0 -10 3 -4 5 12 5 17 0 24 -2 18 -5z m234 1 c-3 -3 -12 -4 -19 -1 -8 3 -5
6 6 6 11 1 17 -2 13 -5z m396 -1 c-7 -2 -19 -2 -25 0 -7 3 -2 5 12 5 14 0 19
-2 13 -5z m120 0 c-7 -2 -19 -2 -25 0 -7 3 -2 5 12 5 14 0 19 -2 13 -5z m150
0 c-7 -2 -19 -2 -25 0 -7 3 -2 5 12 5 14 0 19 -2 13 -5z m-966 -9 c-3 -3 -12
-4 -19 -1 -8 3 -5 6 6 6 11 1 17 -2 13 -5z m176 -1 c-7 -2 -19 -2 -25 0 -7 3
-2 5 12 5 14 0 19 -2 13 -5z m170 0 c-7 -2 -19 -2 -25 0 -7 3 -2 5 12 5 14 0
19 -2 13 -5z m155 0 c-27 -2 -69 -2 -95 0 -27 2 -5 3 47 3 52 0 74 -1 48 -3z
m359 1 c-3 -3 -12 -4 -19 -1 -8 3 -5 6 6 6 11 1 17 -2 13 -5z m-564 -21 c-7
-2 -19 -2 -25 0 -7 3 -2 5 12 5 14 0 19 -2 13 -5z m44 1 c-3 -3 -12 -4 -19 -1
-8 3 -5 6 6 6 11 1 17 -2 13 -5z"/>
<path d="M7605 4010 c-216 -44 -390 -133 -563 -288 -87 -78 -133 -104 -292
-165 -386 -147 -915 -251 -1585 -311 -523 -48 -1235 -54 -1755 -16 -919 67
-1622 246 -1952 496 l-58 44 0 -74 c0 -107 17 -311 41 -476 114 -806 406
-1440 883 -1915 312 -310 647 -517 1054 -651 59 -19 114 -37 121 -40 9 -3 -5
-14 -36 -29 -218 -101 -43 -215 417 -272 180 -22 665 -25 835 -5 377 45 577
118 550 202 -8 26 -57 61 -119 87 -53 23 -53 24 19 46 337 102 679 308 913
550 74 77 90 101 49 74 -251 -164 -228 -151 -422 -246 -400 -197 -760 -283
-1200 -284 -450 -2 -859 99 -1251 309 -557 298 -994 812 -1181 1394 -55 171
-113 443 -113 530 0 27 6 26 92 -14 246 -115 686 -221 1146 -276 289 -35 550
-51 922 -57 1072 -17 2065 141 2662 424 l136 65 51 83 c52 85 169 236 225 290
176 171 348 244 508 215 139 -25 281 -136 326 -254 56 -147 10 -308 -125 -439
-66 -64 -96 -83 -285 -183 -195 -102 -257 -140 -363 -215 -208 -149 -332 -288
-392 -442 -26 -67 -28 -82 -28 -212 1 -135 2 -143 34 -225 54 -136 150 -291
246 -395 l46 -50 -31 51 c-158 268 -169 479 -35 669 122 171 343 327 765 540
193 96 278 149 395 242 147 117 243 238 303 385 20 51 26 85 30 175 5 130 -4
175 -55 282 -64 134 -225 273 -394 340 -150 59 -363 76 -534 41z"/>
</g>
</svg>
